<svg version="1.1" xmlns="http://www.w3.org/2000/svg" viewBox="0 0 292 281" width="292" height="281" preserveAspectRatio="xMidYMid meet" role="img" aria-label="Industrias Roland Print">
<path d="M0 0 C96.36 0 192.72 0 292 0 C292 92.73 292 185.46 292 281 C195.64 281 99.28 281 0 281 C0 188.27 0 95.54 0 0 Z " fill="#FEFEFE" transform="translate(0,0)"/>
<path d="M0 0 C5.548997 1.47534721 8.82108018 5.4416645 12.70703125 9.4140625 C13.43242599 10.14370209 14.15782074 10.87334167 14.90519714 11.62509155 C17.21478117 13.95143481 19.51370092 16.28800372 21.8125 18.625 C23.37886493 20.20641524 24.94591453 21.78715264 26.51367188 23.3671875 C30.35042011 27.23696849 34.1784707 31.11519227 38 35 C36.62702186 38.07693831 35.05785373 40.19457024 32.68359375 42.57519531 C32.00949463 43.25559875 31.33539551 43.9360022 30.64086914 44.63702393 C29.91375732 45.36008728 29.18664551 46.08315063 28.4375 46.828125 C27.69040771 47.57713074 26.94331543 48.32613647 26.17358398 49.09783936 C24.59572081 50.67706204 23.01533501 52.25376774 21.43261719 53.828125 C19.00222035 56.24778946 16.58269939 58.67796189 14.1640625 61.109375 C12.63084948 62.64126697 11.09701648 64.17253872 9.5625 65.703125 C8.83538818 66.43428528 8.10827637 67.16544556 7.35913086 67.91876221 C6.68503174 68.58655701 6.01093262 69.25435181 5.31640625 69.94238281 C4.72287354 70.53432434 4.12934082 71.12626587 3.51782227 71.73614502 C2 73 2 73 0 73 C-1.19390463 71.86847549 -2.37933669 70.72658643 -3.51885986 69.54031372 C-5.09204905 67.90427346 -6.70777303 66.32172133 -8.33740234 64.74194336 C-11.65317321 61.514845 -14.95388925 58.2728117 -18.24951172 55.02514648 C-19.6728735 53.62712597 -21.1006607 52.23359762 -22.53271484 50.84448242 C-24.60388308 48.83370155 -26.65870536 46.80742428 -28.7109375 44.77734375 C-29.35662689 44.15746078 -30.00231628 43.53757782 -30.66757202 42.89891052 C-31.25213165 42.31472855 -31.83669128 41.73054657 -32.43896484 41.12866211 C-32.95905121 40.6196788 -33.47913757 40.1106955 -34.01498413 39.58628845 C-35 38 -35 38 -34.86222839 36.02790833 C-33.83676668 33.61608525 -32.62852458 32.2673232 -30.76538086 30.42480469 C-30.08475082 29.74440125 -29.40412079 29.0639978 -28.7028656 28.36297607 C-27.96431839 27.63991272 -27.22577118 26.91684937 -26.46484375 26.171875 C-25.71159317 25.42286926 -24.95834259 24.67386353 -24.18226624 23.90216064 C-21.77428956 21.51097956 -19.35609255 19.13043835 -16.9375 16.75 C-15.30335262 15.13089823 -13.66988045 13.51111468 -12.03710938 11.890625 C-8.03254154 7.91913818 -4.01953193 3.9563379 0 0 Z " fill="#036EB1" transform="translate(58,106)"/>
<path d="M0 0 C2.42162107 1.06581131 3.81915499 2.33105853 5.68045044 4.21258545 C6.38087463 4.91323624 7.08129883 5.61388702 7.802948 6.33576965 C8.54788513 7.09619064 9.29282227 7.85661163 10.06033325 8.64007568 C10.83153503 9.41552231 11.60273682 10.19096893 12.39730835 10.98991394 C14.85981535 13.46921885 17.31168959 15.95874935 19.76345825 18.44866943 C21.43073734 20.13099383 23.09869795 21.8126431 24.7673645 23.49359131 C28.85733728 27.61664818 32.93862746 31.74815002 37.01345825 35.88616943 C31.87206282 42.00706888 26.39738758 47.68840559 20.74636841 53.33856201 C19.14367722 54.94344333 17.54917446 56.55617035 15.9548645 58.16937256 C14.91499121 59.2121804 13.87464203 60.25451397 12.83377075 61.29632568 C11.90838501 62.22582031 10.98299927 63.15531494 10.02957153 64.11297607 C6.57399804 67.2902352 2.7688566 70.06962067 -0.98654175 72.88616943 C-12.86654175 61.00616943 -24.74654175 49.12616943 -36.98654175 36.88616943 C-35.32206351 33.55721295 -34.28628842 31.92606922 -31.79367065 29.38690186 C-31.14604767 28.72329147 -30.49842468 28.05968109 -29.83117676 27.3759613 C-29.13221283 26.67163467 -28.4332489 25.96730804 -27.71310425 25.24163818 C-26.99295135 24.51245682 -26.27279846 23.78327545 -25.53082275 23.03199768 C-24.00871277 21.49539759 -22.48379029 19.96157908 -20.95626831 18.43035889 C-18.61493376 16.07707875 -16.29289561 13.70579555 -13.97091675 11.33343506 C-12.49029761 9.8433575 -11.00856412 8.35438621 -9.52560425 6.86663818 C-8.83068878 6.1521904 -8.13577332 5.43774261 -7.4197998 4.7016449 C-6.7658725 4.05379532 -6.11194519 3.40594574 -5.4382019 2.73846436 C-4.86687531 2.16206711 -4.29554871 1.58566986 -3.70690918 0.99180603 C-1.98654175 -0.11383057 -1.98654175 -0.11383057 0 0 Z " fill="#036EB1" transform="translate(145.98654174804688,20.11383056640625)"/>
<path d="M0 0 C6.92397901 1.26038248 13.8473345 2.52414704 20.77026367 3.7902832 C23.12624056 4.22075358 25.48235994 4.6504448 27.83862305 5.0793457 C31.22221899 5.69538664 34.60529533 6.31421277 37.98828125 6.93359375 C39.04461258 7.12529648 40.10094391 7.31699921 41.18928528 7.51451111 C42.17007553 7.69462234 43.15086578 7.87473358 44.16137695 8.06030273 C45.02519485 8.21796616 45.88901276 8.37562958 46.77900696 8.53807068 C49 9 49 9 52 10 C51.28962451 16.18815986 50.28148869 22.28174265 49.15234375 28.40625 C48.97619034 29.3715564 48.80003693 30.33686279 48.61854553 31.3314209 C48.06027757 34.38799875 47.49893828 37.44400306 46.9375 40.5 C46.5564369 42.58329608 46.17557547 44.66662906 45.79492188 46.75 C44.86561325 51.83376308 43.93355134 56.91701439 43 62 C14.94129693 57.26706591 14.94129693 57.26706591 2.375 54.75 C1.15248535 54.50588379 1.15248535 54.50588379 -0.09472656 54.25683594 C-3.13147842 53.63792199 -6.05681622 52.98106126 -9 52 C-7.70812838 40.2002277 -5.70675143 28.63520408 -3.375 17 C-3.04636553 15.33864236 -2.71823804 13.67718436 -2.390625 12.015625 C-1.59956111 8.00924117 -0.80174897 4.00425862 0 0 Z " fill="#E30815" transform="translate(220,106)"/>
<path d="M0 0 C4.62648323 3.86297927 9.00340632 7.87345472 13.23046875 12.16796875 C13.78817459 12.72946121 14.34588043 13.29095367 14.92048645 13.86946106 C16.67864461 15.63969569 18.43347984 17.41316581 20.1875 19.1875 C22.51140279 21.53807417 24.83865495 23.88525794 27.16796875 26.23046875 C27.69408249 26.76488083 28.22019623 27.29929291 28.76225281 27.84989929 C31.36710026 30.47203701 33.96431755 32.88512763 37 35 C36.41815146 38.52738271 35.19436443 40.17331691 32.67358398 42.66699219 C31.9729332 43.36741638 31.27228241 44.06784058 30.55039978 44.78948975 C29.78997879 45.53442688 29.0295578 46.27936401 28.24609375 47.046875 C27.47064713 47.81807678 26.6952005 48.58927856 25.89625549 49.3838501 C23.41695059 51.8463571 20.92742008 54.29823134 18.4375 56.75 C16.7551756 58.41727909 15.07352633 60.08523969 13.39257812 61.75390625 C9.26952125 65.84387902 5.13801942 69.92516921 1 74 C-3.98592875 69.82222235 -8.66704284 65.46872723 -13.24609375 60.8515625 C-13.90207047 60.19417084 -14.55804718 59.53677917 -15.23390198 58.85946655 C-17.30415268 56.78367138 -19.37087651 54.70440573 -21.4375 52.625 C-22.85067862 51.2067992 -24.26408794 49.78882824 -25.67773438 48.37109375 C-29.12116065 44.91671223 -32.56143099 41.4592163 -36 38 C-34.6238464 34.90820864 -33.04841555 32.80361247 -30.65185547 30.42480469 C-29.97130096 29.74440125 -29.29074646 29.0639978 -28.58956909 28.36297607 C-27.85618317 27.63991272 -27.12279724 26.91684937 -26.3671875 26.171875 C-25.61535187 25.42286926 -24.86351624 24.67386353 -24.08889771 23.90216064 C-21.68892099 21.5133698 -19.28207991 19.13163103 -16.875 16.75 C-15.24563648 15.13066831 -13.61672466 13.51088198 -11.98828125 11.890625 C-7.99741194 7.92179495 -4.00088585 3.95873101 0 0 Z " fill="#016EB1" transform="translate(189,149)"/>
<path d="M0 0 C7.875 6.75 7.875 6.75 10.54858398 9.43505859 C11.14867783 10.03522797 11.74877167 10.63539734 12.36705017 11.25375366 C12.98713455 11.87899933 13.60721893 12.504245 14.24609375 13.1484375 C14.90207047 13.80582916 15.55804718 14.46322083 16.23390198 15.14053345 C18.30415268 17.21632862 20.37087651 19.29559427 22.4375 21.375 C23.85067862 22.7932008 25.26408794 24.21117176 26.67773438 25.62890625 C30.12116065 29.08328777 33.56143099 32.5407837 37 36 C35.6238464 39.09179136 34.04841555 41.19638753 31.65185547 43.57519531 C30.97130096 44.25559875 30.29074646 44.9360022 29.58956909 45.63702393 C28.85618317 46.36008728 28.12279724 47.08315063 27.3671875 47.828125 C26.61535187 48.57713074 25.86351624 49.32613647 25.08889771 50.09783936 C22.68892099 52.4866302 20.28207991 54.86836897 17.875 57.25 C16.24563648 58.86933169 14.61672466 60.48911802 12.98828125 62.109375 C8.99741194 66.07820505 5.00088585 70.04126899 1 74 C-3.79341026 70.00321447 -8.31113569 65.82650518 -12.703125 61.39453125 C-13.3075946 60.7886467 -13.91206421 60.18276215 -14.53485107 59.55851746 C-16.44229017 57.64554119 -18.34620377 55.72910095 -20.25 53.8125 C-21.54143268 52.51604292 -22.83309741 51.21981695 -24.125 49.92382812 C-26.48483417 47.55586675 -28.84337757 45.18663742 -31.20019531 42.81567383 C-33.13063167 40.87429586 -35.06408511 38.93591489 -37 37 C-24.79 24.79 -12.58 12.58 0 0 Z " fill="#E30714" transform="translate(102,62)"/>
<path d="M0 0 C4.98592875 4.17777765 9.66704284 8.53127277 14.24609375 13.1484375 C14.90207047 13.80582916 15.55804718 14.46322083 16.23390198 15.14053345 C18.30415268 17.21632862 20.37087651 19.29559427 22.4375 21.375 C23.85067862 22.7932008 25.26408794 24.21117176 26.67773438 25.62890625 C30.12116065 29.08328777 33.56143099 32.5407837 37 36 C35.6238464 39.09179136 34.04841555 41.19638753 31.65185547 43.57519531 C30.97130096 44.25559875 30.29074646 44.9360022 29.58956909 45.63702393 C28.85618317 46.36008728 28.12279724 47.08315063 27.3671875 47.828125 C26.61535187 48.57713074 25.86351624 49.32613647 25.08889771 50.09783936 C22.68892099 52.4866302 20.28207991 54.86836897 17.875 57.25 C16.24563648 58.86933169 14.61672466 60.48911802 12.98828125 62.109375 C8.99741194 66.07820505 5.00088585 70.04126899 1 74 C-3.98592875 69.82222235 -8.66704284 65.46872723 -13.24609375 60.8515625 C-13.90207047 60.19417084 -14.55804718 59.53677917 -15.23390198 58.85946655 C-17.30415268 56.78367138 -19.37087651 54.70440573 -21.4375 52.625 C-22.85067862 51.2067992 -24.26408794 49.78882824 -25.67773438 48.37109375 C-29.12116065 44.91671223 -32.56143099 41.4592163 -36 38 C-34.6238464 34.90820864 -33.04841555 32.80361247 -30.65185547 30.42480469 C-29.97130096 29.74440125 -29.29074646 29.0639978 -28.58956909 28.36297607 C-27.85618317 27.63991272 -27.12279724 26.91684937 -26.3671875 26.171875 C-25.61535187 25.42286926 -24.86351624 24.67386353 -24.08889771 23.90216064 C-21.68892099 21.5133698 -19.28207991 19.13163103 -16.875 16.75 C-15.24563648 15.13066831 -13.61672466 13.51088198 -11.98828125 11.890625 C-7.99741194 7.92179495 -4.00088585 3.95873101 0 0 Z " fill="#E30613" transform="translate(146,192)"/>
<path d="M0 0 C4.98592875 4.17777765 9.66704284 8.53127277 14.24609375 13.1484375 C14.90207047 13.80582916 15.55804718 14.46322083 16.23390198 15.14053345 C18.30415268 17.21632862 20.37087651 19.29559427 22.4375 21.375 C23.85067862 22.7932008 25.26408794 24.21117176 26.67773438 25.62890625 C30.12116065 29.08328777 33.56143099 32.5407837 37 36 C35.6238464 39.09179136 34.04841555 41.19638753 31.65185547 43.57519531 C30.97130096 44.25559875 30.29074646 44.9360022 29.58956909 45.63702393 C28.85618317 46.36008728 28.12279724 47.08315063 27.3671875 47.828125 C26.61535187 48.57713074 25.86351624 49.32613647 25.08889771 50.09783936 C22.68892099 52.4866302 20.28207991 54.86836897 17.875 57.25 C16.24563648 58.86933169 14.61672466 60.48911802 12.98828125 62.109375 C8.99741194 66.07820505 5.00088585 70.04126899 1 74 C-3.98592875 69.82222235 -8.66704284 65.46872723 -13.24609375 60.8515625 C-13.90207047 60.19417084 -14.55804718 59.53677917 -15.23390198 58.85946655 C-17.30415268 56.78367138 -19.37087651 54.70440573 -21.4375 52.625 C-22.85067862 51.2067992 -24.26408794 49.78882824 -25.67773438 48.37109375 C-29.12116065 44.91671223 -32.56143099 41.4592163 -36 38 C-34.6238464 34.90820864 -33.04841555 32.80361247 -30.65185547 30.42480469 C-29.97130096 29.74440125 -29.29074646 29.0639978 -28.58956909 28.36297607 C-27.85618317 27.63991272 -27.12279724 26.91684937 -26.3671875 26.171875 C-25.61535187 25.42286926 -24.86351624 24.67386353 -24.08889771 23.90216064 C-21.68892099 21.5133698 -19.28207991 19.13163103 -16.875 16.75 C-15.24563648 15.13066831 -13.61672466 13.51088198 -11.98828125 11.890625 C-7.99741194 7.92179495 -4.00088585 3.95873101 0 0 Z " fill="#01A298" transform="translate(103,149)"/>
<path d="M0 0 C4.98592875 4.17777765 9.66704284 8.53127277 14.24609375 13.1484375 C14.90207047 13.80582916 15.55804718 14.46322083 16.23390198 15.14053345 C18.30415268 17.21632862 20.37087651 19.29559427 22.4375 21.375 C23.85067862 22.7932008 25.26408794 24.21117176 26.67773438 25.62890625 C30.12116065 29.08328777 33.56143099 32.5407837 37 36 C35.6238464 39.09179136 34.04841555 41.19638753 31.65185547 43.57519531 C30.97130096 44.25559875 30.29074646 44.9360022 29.58956909 45.63702393 C28.85618317 46.36008728 28.12279724 47.08315063 27.3671875 47.828125 C26.61535187 48.57713074 25.86351624 49.32613647 25.08889771 50.09783936 C22.68892099 52.4866302 20.28207991 54.86836897 17.875 57.25 C16.24563648 58.86933169 14.61672466 60.48911802 12.98828125 62.109375 C8.99741194 66.07820505 5.00088585 70.04126899 1 74 C-3.98592875 69.82222235 -8.66704284 65.46872723 -13.24609375 60.8515625 C-13.90207047 60.19417084 -14.55804718 59.53677917 -15.23390198 58.85946655 C-17.30415268 56.78367138 -19.37087651 54.70440573 -21.4375 52.625 C-22.85067862 51.2067992 -24.26408794 49.78882824 -25.67773438 48.37109375 C-29.12116065 44.91671223 -32.56143099 41.4592163 -36 38 C-34.6238464 34.90820864 -33.04841555 32.80361247 -30.65185547 30.42480469 C-29.97130096 29.74440125 -29.29074646 29.0639978 -28.58956909 28.36297607 C-27.85618317 27.63991272 -27.12279724 26.91684937 -26.3671875 26.171875 C-25.61535187 25.42286926 -24.86351624 24.67386353 -24.08889771 23.90216064 C-21.68892099 21.5133698 -19.28207991 19.13163103 -16.875 16.75 C-15.24563648 15.13066831 -13.61672466 13.51088198 -11.98828125 11.890625 C-7.99741194 7.92179495 -4.00088585 3.95873101 0 0 Z " fill="#FFDD00" transform="translate(146,106)"/>
<path d="M0 0 C4.98592875 4.17777765 9.66704284 8.53127277 14.24609375 13.1484375 C14.90207047 13.80582916 15.55804718 14.46322083 16.23390198 15.14053345 C18.30415268 17.21632862 20.37087651 19.29559427 22.4375 21.375 C23.85067862 22.7932008 25.26408794 24.21117176 26.67773438 25.62890625 C30.12116065 29.08328777 33.56143099 32.5407837 37 36 C35.6238464 39.09179136 34.04841555 41.19638753 31.65185547 43.57519531 C30.97130096 44.25559875 30.29074646 44.9360022 29.58956909 45.63702393 C28.85618317 46.36008728 28.12279724 47.08315063 27.3671875 47.828125 C26.61535187 48.57713074 25.86351624 49.32613647 25.08889771 50.09783936 C22.68892099 52.4866302 20.28207991 54.86836897 17.875 57.25 C16.24563648 58.86933169 14.61672466 60.48911802 12.98828125 62.109375 C8.99741194 66.07820505 5.00088585 70.04126899 1 74 C-3.98592875 69.82222235 -8.66704284 65.46872723 -13.24609375 60.8515625 C-13.90207047 60.19417084 -14.55804718 59.53677917 -15.23390198 58.85946655 C-17.30415268 56.78367138 -19.37087651 54.70440573 -21.4375 52.625 C-22.85067862 51.2067992 -24.26408794 49.78882824 -25.67773438 48.37109375 C-29.12116065 44.91671223 -32.56143099 41.4592163 -36 38 C-34.6238464 34.90820864 -33.04841555 32.80361247 -30.65185547 30.42480469 C-29.97130096 29.74440125 -29.29074646 29.0639978 -28.58956909 28.36297607 C-27.85618317 27.63991272 -27.12279724 26.91684937 -26.3671875 26.171875 C-25.61535187 25.42286926 -24.86351624 24.67386353 -24.08889771 23.90216064 C-21.68892099 21.5133698 -19.28207991 19.13163103 -16.875 16.75 C-15.24563648 15.13066831 -13.61672466 13.51088198 -11.98828125 11.890625 C-7.99741194 7.92179495 -4.00088585 3.95873101 0 0 Z " fill="#01A298" transform="translate(189,63)"/>
<path d="M0 0 C7.7284126 3.15869512 12.95250289 9.44928016 18.50683594 15.484375 C19.7889563 16.82322636 21.074094 18.15919507 22.36230469 19.4921875 C31.63183594 29.15582602 31.63183594 29.15582602 31.63183594 30.484375 C8.20183594 30.484375 -15.22816406 30.484375 -39.36816406 30.484375 C-34.29959775 24.57104763 -29.21907352 18.72034745 -23.85791016 13.07470703 C-22.86419772 12.01390028 -21.88518633 10.93913014 -20.92138672 9.85107422 C-14.88970815 3.0626235 -9.70152691 -1.58087089 0 0 Z " fill="#DDDCDC" transform="translate(186.3681640625,235.515625)"/>
</svg>
